# xmcd
#
# Track frame offsets:
#	150
#	11672
#	23482
#	36757
#	49785
#	60565
#	71595
#	77095
#	88735
#	102067
#	113387
#	123820
#	133955
#	143445
#	149190
#	160307
#	172085
#	181735
#	193940
#	212907
#
# Disc length: 2970 seconds
#
# Revision: 1
# Processed by: cddbd v1.5.2PL0 Copyright (c) Steve Scherf et al.
# Submitted via: audiograbber 1.83.01
#
DISCID=170b9814
DTITLE=Various Artist - The Essential Country Greats
DYEAR=1997
DGENRE=Country
TTITLE0=Patsy Cline - Walking after midnight
TTITLE1=Johnny Cash - I walk the line
TTITLE2=Hank Thompson - The wild side of life
TTITLE3=Leroy Van Dyke - The auctioneer
TTITLE4=Carl Belew - Am I that easy to forget
TTITLE5=Carlisles - No help wanted
TTITLE6=Webb Pierce - There stands the glass
TTITLE7=Floyd Kramer - Fancy pants
TTITLE8=Gene Autry - Mexicali Rose
TTITLE9=Johnny Horton - All for the love of a girl
TTITLE10=Faron Young - If you ain't lovin'
TTITLE11=Floyd Tilman - Slipping around
TTITLE12=Hank Locklin - Geisha girl
TTITLE13=Red Sovine - Are you mine
TTITLE14=Jeannie C Riley - Box of memories
TTITLE15=Juston Tubb - Looking back to see
TTITLE16=Benny Barnes - Poor man's riches
TTITLE17=Slim Wallet - Don't let the stars get in your eyes
TTITLE18=Cowboy Copas - The deck of cards
TTITLE19=George Jones - Heartbreak hotel
EXTD=CD 1 of a set of 3.
EXTT0=
EXTT1=
EXTT2=
EXTT3=
EXTT4=
EXTT5=
EXTT6=Stage performance.
EXTT7=
EXTT8=
EXTT9=
EXTT10=
EXTT11=
EXTT12=
EXTT13=Stage performance.
EXTT14=
EXTT15=
EXTT16=
EXTT17=
EXTT18=
EXTT19=
PLAYORDER=
